<svg xmlns="http://www.w3.org/2000/svg" version="1.1" xmlns:xlink="http://www.w3.org/1999/xlink" xmlns:svgjs="http://svgjs.dev/svgjs" width="128" height="128" viewBox="0 0 128 128"><g transform="matrix(0.8046875,0,0,0.8046875,12.386130817930187,2.2428301411290334)"><svg viewBox="0 0 129 155" data-background-color="#ffffff" preserveAspectRatio="xMidYMid meet" height="153" width="128" xmlns="http://www.w3.org/2000/svg" xmlns:xlink="http://www.w3.org/1999/xlink"><g id="tight-bounds" transform="matrix(1,0,0,1,0.1426128590971416,0.25)"><svg viewBox="0 0 128.71477428180575 154.5" height="154.5" width="128.71477428180575"><g><svg viewBox="0 0 128.71477428180575 154.5" height="154.5" width="128.71477428180575"><g><svg viewBox="0 0 128.71477428180575 154.5" height="154.5" width="128.71477428180575"><g id="textblocktransform"><svg viewBox="0 0 128.71477428180575 154.5" height="154.5" width="128.71477428180575" id="textblock"><g><svg viewBox="0 0 128.71477428180575 154.5" height="154.5" width="128.71477428180575"><g transform="matrix(1,0,0,1,0,0)"><svg width="128.71477428180575" viewBox="1.6 -36.7 30.449999999999996 36.550000000000004" height="154.5" data-palette-color="#3949fd"><path d="M6.9-0.15L6.9-0.15Q4.6-0.15 3.1-1.55 1.6-2.95 1.6-5.1L1.6-5.1 1.6-31.55Q1.6-33.75 3.05-35.23 4.5-36.7 6.85-36.7L6.85-36.7Q9.35-36.7 10.75-35.23 12.15-33.75 12.15-31.65L12.15-31.65 12.15-22.4 21.45-22.4 21.45-31.55Q21.45-33.75 22.9-35.23 24.35-36.7 26.8-36.7L26.8-36.7Q29.25-36.7 30.65-35.23 32.05-33.75 32.05-31.65L32.05-31.65 32.05-5.1Q32.05-2.95 30.58-1.55 29.1-0.15 26.9-0.15L26.9-0.15Q24.5-0.15 22.98-1.55 21.45-2.95 21.45-5.1L21.45-5.1 21.45-15.05 12.15-15.05 12.15-5.1Q12.15-2.95 10.68-1.55 9.2-0.15 6.9-0.15Z" opacity="1" transform="matrix(1,0,0,1,0,0)" fill="#ffffff" class="wordmark-text-0" data-fill-palette-color="primary" id="text-0"></path></svg></g></svg></g></svg></g></svg></g><g></g></svg></g><defs></defs></svg><rect width="128.71477428180575" height="154.5" fill="none" stroke="none" visibility="hidden"></rect></g></svg></g></svg>